<svg width="708" height="712" viewBox="0 0 708 712" fill="none" xmlns="http://www.w3.org/2000/svg">
<g filter="url(#filter0_d_217_4)">
<rect x="4" y="4" width="700" height="700" rx="80" fill="#0B090A"/>
</g>
<rect x="4" y="73" width="700" height="119" fill="#838383"/>
<rect x="4" y="4" width="700" height="174" rx="68" fill="#838383"/>
<circle cx="354" cy="350" r="237" fill="#0B0909"/>
<path d="M444.423 350L399.212 428.308L308.789 428.308L263.577 350L308.789 271.691L399.212 271.691L444.423 350Z" fill="#E3E3E3" stroke="#E3E3E3"/>
<path d="M417.315 349.539L385.927 403.904L323.153 403.904L291.766 349.539L323.153 295.175L385.928 295.175L417.315 349.539Z" fill="#E3E3E3" stroke="#E3E3E3"/>
<line x1="399" y1="286.1" x2="123" y2="286.1" stroke="#E3E3E3" stroke-width="30"/>
<line x1="432.51" y1="356.5" x2="287.01" y2="104.5" stroke="url(#paint0_linear_217_4)" stroke-width="30"/>
<line x1="388.17" y1="416.229" x2="537.17" y2="170.229" stroke="#E3E3E3" stroke-width="30"/>
<line x1="164.128" y1="541.298" x2="313.129" y2="292.298" stroke="#E3E3E3" stroke-width="30"/>
<line x1="366" y1="186" x2="530" y2="186" stroke="#E3E3E3" stroke-width="30"/>
<line x1="177" y1="515" x2="376" y2="515" stroke="#E3E3E3" stroke-width="30"/>
<line x1="605" y1="413.8" x2="355" y2="413.8" stroke="#E3E3E3" stroke-width="30"/>
<line x1="414.99" y1="584.466" x2="278.99" y2="347.466" stroke="url(#paint1_linear_217_4)" stroke-width="30"/>
<line x1="429.593" y1="283.914" x2="342.037" y2="133.548" stroke="#0B0909" stroke-width="30"/>
<path d="M380.627 585.132L295.5 436" stroke="#0B0909" stroke-width="30"/>
<path d="M631 350C631 502.983 506.983 627 354 627C201.017 627 77 502.983 77 350C77 197.017 201.017 73 354 73C506.983 73 631 197.017 631 350ZM118.55 350C118.55 480.035 223.965 585.45 354 585.45C484.035 585.45 589.45 480.035 589.45 350C589.45 219.965 484.035 114.55 354 114.55C223.965 114.55 118.55 219.965 118.55 350Z" fill="#57595B"/>
<path d="M631 350C631 502.983 506.983 627 354 627C201.017 627 77 502.983 77 350C77 197.017 201.017 73 354 73C506.983 73 631 197.017 631 350ZM82.54 350C82.54 499.923 204.077 621.46 354 621.46C503.923 621.46 625.46 499.923 625.46 350C625.46 200.077 503.923 78.54 354 78.54C204.077 78.54 82.54 200.077 82.54 350Z" fill="#D5D5D5"/>
<path d="M593 350.5C593 481.668 486.668 588 355.5 588C224.332 588 118 481.668 118 350.5C118 219.332 224.332 113 355.5 113C486.668 113 593 219.332 593 350.5ZM123.938 350.5C123.938 478.388 227.612 582.062 355.5 582.062C483.388 582.062 587.062 478.388 587.062 350.5C587.062 222.612 483.388 118.938 355.5 118.938C227.612 118.938 123.938 222.612 123.938 350.5Z" fill="#D5D5D5"/>
<path d="M155.418 182.108L154.645 178.021L144.048 190.676L140.409 187.628L157.665 167.023L162.601 191.218L163.455 195.51L174.537 182.276L178.176 185.323L160.604 206.306L155.418 182.108ZM187.534 150.225L187.476 146.066L174.857 156.705L171.797 153.077L192.346 135.753L193.039 160.437L193.14 164.811L206.338 153.685L209.397 157.314L188.472 174.955L187.534 150.225ZM208.195 124.619L212.933 121.62L227.63 144.833L222.892 147.832L208.195 124.619ZM233.215 110.537L238.314 108.29L257.597 109.591L253.982 101.387L259.081 99.1401L270.159 124.282L265.06 126.529L259.978 114.996L240.717 113.743L249.393 133.433L244.293 135.679L233.215 110.537Z" fill="#F3E8DF"/>
<path d="M289.805 112.387C290.264 113.92 290.083 115.544 289.261 117.26C288.421 118.915 287.265 119.963 285.794 120.404C284.077 120.919 282.376 120.928 280.691 120.431C278.987 119.873 277.914 118.858 277.473 117.387C276.775 115.057 276.689 113.212 277.217 111.851C277.805 110.472 278.989 109.516 280.766 108.983C282.851 108.358 284.754 108.355 286.477 108.975C288.181 109.533 289.29 110.67 289.805 112.387Z" fill="#CB0003"/>
<circle cx="630.5" cy="73.5" r="30.5" fill="#AC1717"/>
<defs>
<filter id="filter0_d_217_4" x="0" y="4" width="708" height="708" filterUnits="userSpaceOnUse" color-interpolation-filters="sRGB">
<feFlood flood-opacity="0" result="BackgroundImageFix"/>
<feColorMatrix in="SourceAlpha" type="matrix" values="0 0 0 0 0 0 0 0 0 0 0 0 0 0 0 0 0 0 127 0" result="hardAlpha"/>
<feOffset dy="4"/>
<feGaussianBlur stdDeviation="2"/>
<feComposite in2="hardAlpha" operator="out"/>
<feColorMatrix type="matrix" values="0 0 0 0 0 0 0 0 0 0 0 0 0 0 0 0 0 0 0.25 0"/>
<feBlend mode="normal" in2="BackgroundImageFix" result="effect1_dropShadow_217_4"/>
<feBlend mode="normal" in="SourceGraphic" in2="effect1_dropShadow_217_4" result="shape"/>
</filter>
<linearGradient id="paint0_linear_217_4" x1="300.433" y1="96.75" x2="445.933" y2="348.75" gradientUnits="userSpaceOnUse">
<stop stop-color="#7D7D7D"/>
<stop offset="0.620192" stop-color="#E3E3E3"/>
</linearGradient>
<linearGradient id="paint1_linear_217_4" x1="292.434" y1="339.751" x2="428.434" y2="576.751" gradientUnits="userSpaceOnUse">
<stop offset="0.600961" stop-color="#E3E3E3"/>
<stop offset="1" stop-color="#7D7D7D"/>
</linearGradient>
</defs>
</svg>
